<svg width="174" height="249" viewBox="0 0 174 249" fill="none" xmlns="http://www.w3.org/2000/svg">
<g filter="url(#filter0_d_114_4467)">
<path d="M161.354 0H12.6458C7.87087 0 4 4.69128 4 10.4783V230.522C4 236.309 7.87087 241 12.6458 241H161.354C166.129 241 170 236.309 170 230.522V10.4783C170 4.69128 166.129 0 161.354 0Z" fill="#3A5E88"/>
<path d="M92.4779 28.1147H32.0917C28.2435 28.1147 25.124 31.5457 25.124 35.778C25.124 40.0103 28.2435 43.4413 32.0917 43.4413H92.4779C96.326 43.4413 99.4455 40.0103 99.4455 35.778C99.4455 31.5457 96.326 28.1147 92.4779 28.1147Z" fill="#E6E8F0"/>
<path d="M134.284 61.3225H32.0917C28.2436 61.3225 25.1241 64.7535 25.1241 68.9858C25.1241 73.2181 28.2436 76.6491 32.0917 76.6491H134.284C138.132 76.6491 141.251 73.2181 141.251 68.9858C141.251 64.7535 138.132 61.3225 134.284 61.3225Z" fill="#F6F8FD"/>
<path d="M92.478 97.085H32.0917C28.2436 97.085 25.1241 100.516 25.1241 104.748C25.1241 108.981 28.2436 112.412 32.0917 112.412H92.478C96.3261 112.412 99.4456 108.981 99.4456 104.748C99.4456 100.516 96.3261 97.085 92.478 97.085Z" fill="#E6E8F0"/>
<path d="M134.284 130.292H32.0917C28.2436 130.292 25.1241 133.723 25.1241 137.955C25.1241 142.188 28.2436 145.619 32.0917 145.619H134.284C138.132 145.619 141.251 142.188 141.251 137.955C141.251 133.723 138.132 130.292 134.284 130.292Z" fill="#F6F8FD"/>
<path d="M92.478 166.054H32.0917C28.2436 166.054 25.1241 169.485 25.1241 173.718C25.1241 177.95 28.2436 181.381 32.0917 181.381H92.478C96.3261 181.381 99.4456 177.95 99.4456 173.718C99.4456 169.485 96.3261 166.054 92.478 166.054Z" fill="#E6E8F0"/>
<path d="M134.284 199.263H32.0917C28.2436 199.263 25.1241 202.694 25.1241 206.926C25.1241 211.158 28.2436 214.589 32.0917 214.589H134.284C138.132 214.589 141.251 211.158 141.251 206.926C141.251 202.694 138.132 199.263 134.284 199.263Z" fill="#F6F8FD"/>
</g>
<defs>
<filter id="filter0_d_114_4467" x="0" y="0" width="174" height="249" filterUnits="userSpaceOnUse" color-interpolation-filters="sRGB">
<feFlood flood-opacity="0" result="BackgroundImageFix"/>
<feColorMatrix in="SourceAlpha" type="matrix" values="0 0 0 0 0 0 0 0 0 0 0 0 0 0 0 0 0 0 127 0" result="hardAlpha"/>
<feOffset dy="4"/>
<feGaussianBlur stdDeviation="2"/>
<feComposite in2="hardAlpha" operator="out"/>
<feColorMatrix type="matrix" values="0 0 0 0 0 0 0 0 0 0 0 0 0 0 0 0 0 0 0.25 0"/>
<feBlend mode="normal" in2="BackgroundImageFix" result="effect1_dropShadow_114_4467"/>
<feBlend mode="normal" in="SourceGraphic" in2="effect1_dropShadow_114_4467" result="shape"/>
</filter>
</defs>
</svg>
