<svg width="173" height="249" viewBox="0 0 173 249" fill="none" xmlns="http://www.w3.org/2000/svg">
<g filter="url(#filter0_d_114_4449)">
<path d="M159.575 0H12.5481C7.82711 0 4 4.69128 4 10.4783V230.522C4 236.309 7.82711 241 12.5481 241H159.575C164.296 241 168.123 236.309 168.123 230.522V10.4783C168.123 4.69128 164.296 0 159.575 0Z" fill="#B4C1D0"/>
<path d="M91.4774 28.1146H31.7739C27.9693 28.1146 24.885 31.5456 24.885 35.7779C24.885 40.0102 27.9693 43.4412 31.7739 43.4412H91.4774C95.282 43.4412 98.3663 40.0102 98.3663 35.7779C98.3663 31.5456 95.282 28.1146 91.4774 28.1146Z" fill="#E6E8F0"/>
<path d="M132.811 61.3223H31.774C27.9694 61.3223 24.8851 64.7532 24.8851 68.9855C24.8851 73.2179 27.9694 76.6488 31.774 76.6488H132.811C136.615 76.6488 139.7 73.2179 139.7 68.9855C139.7 64.7532 136.615 61.3223 132.811 61.3223Z" fill="#F6F8FD"/>
<path d="M91.4775 97.085H31.774C27.9694 97.085 24.8851 100.516 24.8851 104.748C24.8851 108.981 27.9694 112.412 31.774 112.412H91.4775C95.2822 112.412 98.3664 108.981 98.3664 104.748C98.3664 100.516 95.2822 97.085 91.4775 97.085Z" fill="#E6E8F0"/>
<path d="M132.811 130.292H31.774C27.9694 130.292 24.8851 133.723 24.8851 137.955C24.8851 142.187 27.9694 145.618 31.774 145.618H132.811C136.615 145.618 139.7 142.187 139.7 137.955C139.7 133.723 136.615 130.292 132.811 130.292Z" fill="#F6F8FD"/>
<path d="M91.4775 166.054H31.774C27.9694 166.054 24.8851 169.485 24.8851 173.718C24.8851 177.95 27.9694 181.381 31.774 181.381H91.4775C95.2822 181.381 98.3664 177.95 98.3664 173.718C98.3664 169.485 95.2822 166.054 91.4775 166.054Z" fill="#E6E8F0"/>
<path d="M132.811 199.262H31.774C27.9694 199.262 24.8851 202.693 24.8851 206.926C24.8851 211.158 27.9694 214.589 31.774 214.589H132.811C136.615 214.589 139.7 211.158 139.7 206.926C139.7 202.693 136.615 199.262 132.811 199.262Z" fill="#F6F8FD"/>
</g>
<defs>
<filter id="filter0_d_114_4449" x="0" y="0" width="172.123" height="249" filterUnits="userSpaceOnUse" color-interpolation-filters="sRGB">
<feFlood flood-opacity="0" result="BackgroundImageFix"/>
<feColorMatrix in="SourceAlpha" type="matrix" values="0 0 0 0 0 0 0 0 0 0 0 0 0 0 0 0 0 0 127 0" result="hardAlpha"/>
<feOffset dy="4"/>
<feGaussianBlur stdDeviation="2"/>
<feComposite in2="hardAlpha" operator="out"/>
<feColorMatrix type="matrix" values="0 0 0 0 0 0 0 0 0 0 0 0 0 0 0 0 0 0 0.25 0"/>
<feBlend mode="normal" in2="BackgroundImageFix" result="effect1_dropShadow_114_4449"/>
<feBlend mode="normal" in="SourceGraphic" in2="effect1_dropShadow_114_4449" result="shape"/>
</filter>
</defs>
</svg>
