<svg width="175" height="249" viewBox="0 0 175 249" fill="none" xmlns="http://www.w3.org/2000/svg">
<g filter="url(#filter0_d_114_4440)">
<path d="M162.185 0H12.6915C7.89131 0 4 4.69128 4 10.4783V230.522C4 236.309 7.89131 241 12.6915 241H162.185C166.985 241 170.877 236.309 170.877 230.522V10.4783C170.877 4.69128 166.985 0 162.185 0Z" fill="#91B7E4"/>
<path d="M92.9451 28.1146H32.2399C28.3715 28.1146 25.2355 31.5456 25.2355 35.7779C25.2355 40.0102 28.3715 43.4412 32.2399 43.4412H92.9451C96.8135 43.4412 99.9495 40.0102 99.9495 35.7779C99.9495 31.5456 96.8135 28.1146 92.9451 28.1146Z" fill="#E6E8F0"/>
<path d="M134.972 61.3223H32.24C28.3716 61.3223 25.2356 64.7532 25.2356 68.9855C25.2356 73.2179 28.3716 76.6488 32.24 76.6488H134.972C138.84 76.6488 141.976 73.2179 141.976 68.9855C141.976 64.7532 138.84 61.3223 134.972 61.3223Z" fill="#F6F8FD"/>
<path d="M92.9452 97.0851H32.24C28.3716 97.0851 25.2356 100.516 25.2356 104.748C25.2356 108.981 28.3716 112.412 32.24 112.412H92.9452C96.8136 112.412 99.9496 108.981 99.9496 104.748C99.9496 100.516 96.8136 97.0851 92.9452 97.0851Z" fill="#E6E8F0"/>
<path d="M134.972 130.292H32.24C28.3716 130.292 25.2356 133.723 25.2356 137.955C25.2356 142.187 28.3716 145.618 32.24 145.618H134.972C138.84 145.618 141.976 142.187 141.976 137.955C141.976 133.723 138.84 130.292 134.972 130.292Z" fill="#F6F8FD"/>
<path d="M92.9452 166.054H32.24C28.3716 166.054 25.2356 169.485 25.2356 173.718C25.2356 177.95 28.3716 181.381 32.24 181.381H92.9452C96.8136 181.381 99.9496 177.95 99.9496 173.718C99.9496 169.485 96.8136 166.054 92.9452 166.054Z" fill="#E6E8F0"/>
<path d="M134.972 199.262H32.24C28.3716 199.262 25.2356 202.693 25.2356 206.926C25.2356 211.158 28.3716 214.589 32.24 214.589H134.972C138.84 214.589 141.976 211.158 141.976 206.926C141.976 202.693 138.84 199.262 134.972 199.262Z" fill="#F6F8FD"/>
</g>
<defs>
<filter id="filter0_d_114_4440" x="0" y="0" width="174.877" height="249" filterUnits="userSpaceOnUse" color-interpolation-filters="sRGB">
<feFlood flood-opacity="0" result="BackgroundImageFix"/>
<feColorMatrix in="SourceAlpha" type="matrix" values="0 0 0 0 0 0 0 0 0 0 0 0 0 0 0 0 0 0 127 0" result="hardAlpha"/>
<feOffset dy="4"/>
<feGaussianBlur stdDeviation="2"/>
<feComposite in2="hardAlpha" operator="out"/>
<feColorMatrix type="matrix" values="0 0 0 0 0 0 0 0 0 0 0 0 0 0 0 0 0 0 0.25 0"/>
<feBlend mode="normal" in2="BackgroundImageFix" result="effect1_dropShadow_114_4440"/>
<feBlend mode="normal" in="SourceGraphic" in2="effect1_dropShadow_114_4440" result="shape"/>
</filter>
</defs>
</svg>
